<?xml version="1.0" encoding="UTF-8" standalone="no"?>
<!-- Created with Inkscape (http://www.inkscape.org/) -->

<svg
   width="497.29861"
   height="71.999908"
   viewBox="0 0 131.57692 19.049976"
   version="1.1"
   id="svg1"
   inkscape:version="1.3.2 (091e20e, 2023-11-25)"
   sodipodi:docname="Starch.svg"
   xmlns:inkscape="http://www.inkscape.org/namespaces/inkscape"
   xmlns:sodipodi="http://sodipodi.sourceforge.net/DTD/sodipodi-0.dtd"
   xmlns:xlink="http://www.w3.org/1999/xlink"
   xmlns="http://www.w3.org/2000/svg"
   xmlns:svg="http://www.w3.org/2000/svg"
   xmlns:rdf="http://www.w3.org/1999/02/22-rdf-syntax-ns#"
   xmlns:cc="http://creativecommons.org/ns#"
   xmlns:dc="http://purl.org/dc/elements/1.1/">
  <defs
     id="defs1">
    <clipPath
       clipPathUnits="userSpaceOnUse"
       id="clipPath5">
      <path
         id="path39"
         style="stroke-width:0.1;stroke-linecap:square;paint-order:markers fill stroke;stop-color:#000000"
         d="M 438.25066,553.76374 H 1298.1212 V 755.15928 H 438.25066 Z"
         sodipodi:nodetypes="ccccc" />
    </clipPath>
    <clipPath
       clipPathUnits="userSpaceOnUse"
       id="clipPath25">
      <rect
         style="fill:#ff0000;stroke:none;stroke-width:3;stroke-linecap:square;stroke-linejoin:miter;paint-order:stroke markers fill;stop-color:#000000"
         id="rect25-8"
         width="78"
         height="45.033199"
         x="763.61322"
         y="452.82422" />
    </clipPath>
    <pattern
       inkscape:collect="always"
       xlink:href="#Wave"
       preserveAspectRatio="xMidYMid"
       id="pattern2"
       patternTransform="scale(1)"
       x="0"
       y="0" />
    <pattern
       patternUnits="userSpaceOnUse"
       width="24"
       height="10"
       preserveAspectRatio="xMidYMid"
       id="Wave"
       style="fill:#000000"
       x="0"
       y="0"
       inkscape:collect="always"
       inkscape:isstock="true"
       inkscape:label="Aalto">
      <g
         id="wave_g"
         style="display:inline">
        <path
           d="M 12,-2 C 9.1666695,-2 7.1679672,-0.56445187 5.4179687,0.68554687 3.6679703,1.9355456 2.1666645,3 0,3 V 5 C 2.8333305,5 4.8320328,3.5644519 6.5820312,2.3144531 8.3320297,1.0644544 9.8333355,0 12,0 14.166665,0 15.667971,1.0644544 17.417969,2.3144531 19.167967,3.5644519 21.166669,5 24,5 V 3 C 21.833335,3 20.332029,1.9355456 18.582031,0.68554687 16.832033,-0.56445189 14.833331,-2 12,-2 Z"
           id="path3" />
        <path
           d="M 12,3 C 9.1666695,3 7.1679672,4.4355481 5.4179687,5.6855469 3.6679703,6.9355456 2.1666645,8 0,8 v 2 C 2.8333305,10 4.8320328,8.5644519 6.5820312,7.3144531 8.3320297,6.0644544 9.8333355,5 12,5 14.166665,5 15.667971,6.0644544 17.417969,7.3144531 19.167967,8.5644519 21.166669,10 24,10 V 8 C 21.833335,8 20.332029,6.9355456 18.582031,5.6855469 16.832033,4.4355481 14.833331,3 12,3 Z"
           id="path4" />
        <path
           d="M 12,8 C 9.1666695,8 7.1679672,9.4355481 5.4179687,10.685547 3.6679703,11.935546 2.1666645,13 0,13 v 2 C 2.8333305,15 4.8320328,13.564452 6.5820312,12.314453 8.3320297,11.064454 9.8333355,10 12,10 c 2.166665,0 3.667971,1.064454 5.417969,2.314453 C 19.167967,13.564452 21.166669,15 24,15 V 13 C 21.833335,13 20.332029,11.935546 18.582031,10.685547 16.832033,9.4355481 14.833331,8 12,8 Z"
           id="path5" />
      </g>
    </pattern>
  </defs>
  <sodipodi:namedview
     id="base"
     pagecolor="#ffffff"
     bordercolor="#000000"
     borderopacity="0.3"
     inkscape:pageopacity="0.0"
     inkscape:pageshadow="2"
     inkscape:zoom="1.1468623"
     inkscape:cx="218.42204"
     inkscape:cy="37.929575"
     inkscape:document-units="px"
     inkscape:showpageshadow="2"
     inkscape:pagecheckerboard="0"
     inkscape:deskcolor="#d1d1d1"
     inkscape:window-width="1366"
     inkscape:window-height="698"
     inkscape:window-x="0"
     inkscape:window-y="0"
     inkscape:window-maximized="1"
     inkscape:current-layer="svg1" />
  <metadata
     id="metadata1">
    <rdf:RDF>
      <cc:Work
         rdf:about="">
        <dc:format>image/svg+xml</dc:format>
        <dc:type
           rdf:resource="http://purl.org/dc/dcmitype/StillImage" />
      </cc:Work>
    </rdf:RDF>
  </metadata>
  <text
     xml:space="preserve"
     style="font-style:normal;font-variant:normal;font-weight:normal;font-stretch:normal;font-size:26.4583px;font-family:'Rubik Mono One';-inkscape-font-specification:'Rubik Mono One, Normal';font-variant-ligatures:normal;font-variant-caps:normal;font-variant-numeric:normal;font-variant-east-asian:normal;fill:#000000;fill-opacity:1;fill-rule:nonzero;stroke:none;stroke-width:0.423333;stroke-linecap:round"
     x="-1.6404146"
     y="18.785393"
     id="text1"><tspan
       sodipodi:role="line"
       id="tspan1"
       style="font-style:normal;font-variant:normal;font-weight:normal;font-stretch:normal;font-size:26.4583px;font-family:'Rubik Mono One';-inkscape-font-specification:'Rubik Mono One, Normal';font-variant-ligatures:normal;font-variant-caps:normal;font-variant-numeric:normal;font-variant-east-asian:normal;fill:#000000;fill-opacity:1;fill-rule:nonzero;stroke:none;stroke-width:0.423333"
       x="-1.6404146"
       y="18.785393">STARCH</tspan></text>
</svg>
