<?xml version="1.0" encoding="UTF-8" standalone="no"?>
<!-- Created with Inkscape (http://www.inkscape.org/) -->

<svg
   width="497.29861"
   height="71.999908"
   viewBox="0 0 131.57692 19.049976"
   version="1.1"
   id="svg1"
   xmlns:xlink="http://www.w3.org/1999/xlink"
   xmlns="http://www.w3.org/2000/svg"
   xmlns:svg="http://www.w3.org/2000/svg"
   xmlns:rdf="http://www.w3.org/1999/02/22-rdf-syntax-ns#"
   xmlns:cc="http://creativecommons.org/ns#"
   xmlns:dc="http://purl.org/dc/elements/1.1/">
  <defs
     id="defs1">
    <clipPath
       clipPathUnits="userSpaceOnUse"
       id="clipPath5">
      <path
         id="path39"
         style="stroke-width:0.1;stroke-linecap:square;paint-order:markers fill stroke;stop-color:#000000"
         d="M 438.25066,553.76374 H 1298.1212 V 755.15928 H 438.25066 Z" />
    </clipPath>
    <clipPath
       clipPathUnits="userSpaceOnUse"
       id="clipPath25">
      <rect
         style="fill:#ff0000;stroke:none;stroke-width:3;stroke-linecap:square;stroke-linejoin:miter;paint-order:stroke markers fill;stop-color:#000000"
         id="rect25-8"
         width="78"
         height="45.033199"
         x="763.61322"
         y="452.82422" />
    </clipPath>
    <pattern
       xlink:href="#Wave"
       preserveAspectRatio="xMidYMid"
       id="pattern2"
       patternTransform="scale(1)"
       x="0"
       y="0" />
    <pattern
       patternUnits="userSpaceOnUse"
       width="24"
       height="10"
       preserveAspectRatio="xMidYMid"
       id="Wave"
       style="fill:#000000"
       x="0"
       y="0">
      <g
         id="wave_g"
         style="display:inline">
        <path
           d="M 12,-2 C 9.1666695,-2 7.1679672,-0.56445187 5.4179687,0.68554687 3.6679703,1.9355456 2.1666645,3 0,3 V 5 C 2.8333305,5 4.8320328,3.5644519 6.5820312,2.3144531 8.3320297,1.0644544 9.8333355,0 12,0 14.166665,0 15.667971,1.0644544 17.417969,2.3144531 19.167967,3.5644519 21.166669,5 24,5 V 3 C 21.833335,3 20.332029,1.9355456 18.582031,0.68554687 16.832033,-0.56445189 14.833331,-2 12,-2 Z"
           id="path3" />
        <path
           d="M 12,3 C 9.1666695,3 7.1679672,4.4355481 5.4179687,5.6855469 3.6679703,6.9355456 2.1666645,8 0,8 v 2 C 2.8333305,10 4.8320328,8.5644519 6.5820312,7.3144531 8.3320297,6.0644544 9.8333355,5 12,5 14.166665,5 15.667971,6.0644544 17.417969,7.3144531 19.167967,8.5644519 21.166669,10 24,10 V 8 C 21.833335,8 20.332029,6.9355456 18.582031,5.6855469 16.832033,4.4355481 14.833331,3 12,3 Z"
           id="path4" />
        <path
           d="M 12,8 C 9.1666695,8 7.1679672,9.4355481 5.4179687,10.685547 3.6679703,11.935546 2.1666645,13 0,13 v 2 C 2.8333305,15 4.8320328,13.564452 6.5820312,12.314453 8.3320297,11.064454 9.8333355,10 12,10 c 2.166665,0 3.667971,1.064454 5.417969,2.314453 C 19.167967,13.564452 21.166669,15 24,15 V 13 C 21.833335,13 20.332029,11.935546 18.582031,10.685547 16.832033,9.4355481 14.833331,8 12,8 Z"
           id="path5" />
      </g>
    </pattern>
  </defs>
  <metadata
     id="metadata1">
    <rdf:RDF>
      <cc:Work
         rdf:about="">
        <dc:format>image/svg+xml</dc:format>
        <dc:type
           rdf:resource="http://purl.org/dc/dcmitype/StillImage" />
      </cc:Work>
    </rdf:RDF>
  </metadata>
  <path
     d="m 11.059569,6.9849911 q 4.339161,0.5027077 6.164784,1.8785393 1.852081,1.3493736 1.852081,4.0745786 0,2.725204 -2.672288,4.418536 -2.672289,1.693331 -7.0908245,1.693331 -4.4185361,0 -6.879158,-1.613957 Q -1.8119812e-8,15.795605 -1.8119812e-8,13.414358 q 0,-0.582083 0.608540888119812,-0.582083 H 6.0324923 q 0.5556243,0 0.8995822,0.343958 0.7408324,0.714374 2.5664551,0.714374 2.5135384,0 2.5135384,-0.76729 0,-0.47625 -0.793749,-0.740833 Q 10.42457,12.091443 8.0697814,11.82686 0.58208257,10.927278 0.58208257,6.0854089 q 0,-2.7252048 2.40770523,-4.3920777 Q 5.3974931,1.9073486e-8 9.4191547,1.9073486e-8 q 4.0481193,0 6.5352003,1.772706080926514 2.48708,1.7462478 2.48708,3.7041619 0,0.264583 -0.185208,0.4233328 -0.15875,0.1587498 -0.449791,0.1587498 h -5.688535 q -0.476249,0 -0.820207,-0.3174996 -0.634999,-0.5820826 -1.9049976,-0.5820826 -1.7727061,0 -1.7727061,0.7408324 0,0.3968745 0.6879158,0.6349992 0.6879158,0.2116664 2.7516629,0.4497911 z M 22.965763,0.26458302 H 41.22199 q 0.291041,0 0.502707,0.21166639 0.211667,0.2116664 0.211667,0.5027077 V 5.2387433 q 0,0.2910413 -0.211667,0.5027077 -0.211666,0.2116664 -0.502707,0.2116664 H 35.533455 V 18.071019 q 0,0.291041 -0.211666,0.502707 -0.211667,0.211667 -0.502708,0.211667 h -5.45041 q -0.291041,0 -0.502707,-0.211667 -0.211667,-0.211666 -0.211667,-0.502707 V 5.9531174 h -5.688534 q -0.291042,0 -0.502708,-0.2116664 Q 22.251389,5.5297846 22.251389,5.2387433 V 0.97895711 q 0,-0.2910413 0.211666,-0.5027077 0.211666,-0.21166639 0.502708,-0.21166639 z M 49.582771,18.785393 h -5.000619 q -0.238124,0 -0.423333,-0.15875 -0.158749,-0.185208 -0.158749,-0.343958 0,-0.15875 0.02646,-0.238125 L 49.794437,1.1377069 q 0.238125,-0.87312388 1.190624,-0.87312388 h 7.355407 q 0.952499,0 1.190624,0.87312388 L 65.299001,18.04456 q 0.02646,0.07937 0.02646,0.238125 0,0.15875 -0.185208,0.343958 -0.15875,0.15875 -0.396874,0.15875 h -5.000619 q -0.846666,0 -1.190624,-0.899582 L 57.890677,16.03373 h -6.455825 l -0.661458,1.852081 q -0.343957,0.899582 -1.190623,0.899582 z m 6.958533,-7.911032 -1.87854,-5.5033262 -1.878539,5.5033262 z m 31.03554,7.090824 q 0.05292,0.105834 0.05292,0.291042 0,0.185208 -0.185208,0.370416 -0.15875,0.15875 -0.396875,0.15875 h -6.006034 q -0.793749,0 -1.111249,-0.661458 l -2.32833,-5.238743 h -2.222497 v 5.185827 q 0,0.291041 -0.211666,0.502707 -0.211667,0.211667 -0.502708,0.211667 h -5.714993 q -0.291041,0 -0.502708,-0.211667 -0.211666,-0.211666 -0.211666,-0.502707 V 0.97895711 q 0,-0.2910413 0.211666,-0.5027077 0.211667,-0.21166639 0.502708,-0.21166639 H 79.24248 q 3.624787,0 5.741451,1.71978948 2.116664,1.7197895 2.116664,4.683119 0,3.5983285 -2.778122,5.2122855 z M 75.379568,5.1858267 v 2.8045798 h 3.307287 q 0.582083,0 0.899583,-0.3704162 0.317499,-0.3968745 0.317499,-0.9789571 0,-0.5820826 -0.317499,-1.0054154 -0.291042,-0.4497911 -0.899583,-0.4497911 z m 21.748685,2.2224972 v 4.2333281 q 0,1.08479 0.714374,1.666873 0.740832,0.582082 1.904997,0.582082 1.190626,0 1.719786,-0.370416 0.52917,-0.370416 0.87313,-1.08479 0.37041,-0.714374 0.9525,-0.714374 h 5.71499 q 0.23812,0 0.39687,0.185208 0.18521,0.15875 0.18521,0.396874 0,2.460622 -2.32833,4.497911 -1.16416,1.005416 -3.09562,1.640415 -1.93146,0.608541 -4.550827,0.608541 -2.619372,0 -4.788952,-0.793749 -2.143123,-0.820208 -3.492496,-2.64583 -1.349373,-1.852081 -1.349373,-4.524369 V 7.9639482 q 0,-2.6722883 1.349373,-4.5243692 Q 93.873882,1.9073486e-8 99.826999,1.9073486e-8 q 2.407701,0 4.339161,0.634999190926514 1.93146,0.60854089 3.09562,1.61395629 2.32833,2.0372891 2.32833,4.4979109 0,0.2381247 -0.18521,0.4233328 -0.15875,0.1587498 -0.39687,0.1587498 h -5.71499 q -0.58209,0 -0.9525,-0.7143741 -0.34396,-0.7143741 -0.87313,-1.0847903 -0.52916,-0.3704162 -1.719786,-0.3704162 -1.164165,0 -1.904997,0.5820826 -0.714374,0.5820826 -0.714374,1.6668729 z M 125.41214,0.26458302 h 5.45041 q 0.29104,0 0.50271,0.21166639 0.21166,0.2116664 0.21166,0.5027077 V 18.071019 q 0,0.291041 -0.21166,0.502707 -0.21167,0.211667 -0.50271,0.211667 h -5.45041 q -0.29104,0 -0.50271,-0.211667 -0.21167,-0.211666 -0.21167,-0.502707 v -5.635618 h -5.29166 v 5.635618 q 0,0.291041 -0.21166,0.502707 -0.21167,0.211667 -0.50271,0.211667 h -5.45041 q -0.29104,0 -0.50271,-0.185208 -0.21166,-0.211667 -0.21166,-0.529166 V 0.97895711 q 0,-0.2910413 0.21166,-0.5027077 0.21167,-0.21166639 0.50271,-0.21166639 h 5.45041 q 0.29104,0 0.50271,0.21166639 0.21166,0.2116664 0.21166,0.5027077 V 6.4029085 h 5.29166 V 0.97895711 q 0,-0.2910413 0.21167,-0.5027077 0.21167,-0.21166639 0.50271,-0.21166639 z"
     id="text1"
     style="font-size:26.4583px;font-family:'Rubik Mono One';-inkscape-font-specification:'Rubik Mono One, Normal';stroke-width:0.423333;stroke-linecap:round"
     aria-label="STARCH" />
</svg>
